<svg width="244" height="69" viewBox="0 0 244 69" fill="none" xmlns="http://www.w3.org/2000/svg">
<path d="M38.936 43L32.84 26.2H35.48L40.496 40.036L45.536 26.2H48.176L42.08 43H38.936ZM49.5181 31H52.0141V43H49.5181V31ZM50.7901 29.26C50.4061 29.26 50.0861 29.136 49.8301 28.888C49.5741 28.64 49.4461 28.328 49.4461 27.952C49.4461 27.584 49.5741 27.276 49.8301 27.028C50.0861 26.772 50.4021 26.644 50.7781 26.644C51.1461 26.644 51.4581 26.772 51.7141 27.028C51.9701 27.276 52.0981 27.584 52.0981 27.952C52.0981 28.328 51.9701 28.64 51.7141 28.888C51.4661 29.136 51.1581 29.26 50.7901 29.26ZM59.9544 43.312C58.8504 43.312 57.8424 43.028 56.9304 42.46C56.0264 41.892 55.3024 41.132 54.7584 40.18C54.2224 39.22 53.9544 38.16 53.9544 37C53.9544 36.12 54.1104 35.3 54.4224 34.54C54.7344 33.772 55.1624 33.1 55.7064 32.524C56.2584 31.94 56.8984 31.484 57.6264 31.156C58.3544 30.828 59.1304 30.664 59.9544 30.664C60.8744 30.664 61.7184 30.856 62.4864 31.24C63.2544 31.616 63.9104 32.14 64.4544 32.812C64.9984 33.476 65.3984 34.244 65.6544 35.116C65.9104 35.98 65.9864 36.9 65.8824 37.876H56.6304C56.7344 38.428 56.9344 38.928 57.2304 39.376C57.5344 39.816 57.9184 40.164 58.3824 40.42C58.8544 40.676 59.3784 40.808 59.9544 40.816C60.5624 40.816 61.1144 40.664 61.6104 40.36C62.1144 40.056 62.5264 39.636 62.8464 39.1L65.3784 39.688C64.8984 40.752 64.1744 41.624 63.2064 42.304C62.2384 42.976 61.1544 43.312 59.9544 43.312ZM56.5464 35.968H63.3624C63.2824 35.392 63.0784 34.872 62.7504 34.408C62.4304 33.936 62.0264 33.564 61.5384 33.292C61.0584 33.012 60.5304 32.872 59.9544 32.872C59.3864 32.872 58.8584 33.008 58.3704 33.28C57.8904 33.552 57.4904 33.924 57.1704 34.396C56.8584 34.86 56.6504 35.384 56.5464 35.968ZM73.0912 43H70.6072L66.5872 31H69.0352L71.8672 39.424L74.6752 31H77.1952L80.0032 39.424L82.8232 31H85.2712L81.2632 43H78.7552L75.9232 34.516L73.0912 43ZM98.8336 26.2H101.75L107.858 43H105.218L104.054 39.808H96.5296L95.3776 43H92.7256L98.8336 26.2ZM97.4536 37.312H103.13L100.286 29.512L97.4536 37.312ZM109.963 43V25H112.459V43H109.963ZM115.331 43V25H117.827V43H115.331ZM126.463 43V26.2H132.643C133.555 26.2 134.375 26.424 135.103 26.872C135.831 27.32 136.407 27.924 136.831 28.684C137.263 29.436 137.479 30.276 137.479 31.204C137.479 31.988 137.331 32.704 137.035 33.352C136.747 34 136.339 34.552 135.811 35.008C135.291 35.464 134.695 35.792 134.023 35.992L138.079 43H135.187L131.251 36.22H128.959V43H126.463ZM128.959 33.724H132.379C132.859 33.724 133.295 33.604 133.687 33.364C134.087 33.124 134.403 32.804 134.635 32.404C134.867 32.004 134.983 31.552 134.983 31.048C134.983 30.544 134.867 30.092 134.635 29.692C134.403 29.284 134.087 28.964 133.687 28.732C133.295 28.492 132.859 28.372 132.379 28.372H128.959V33.724ZM145.079 43.312C143.975 43.312 142.967 43.028 142.055 42.46C141.151 41.892 140.427 41.132 139.883 40.18C139.347 39.22 139.079 38.16 139.079 37C139.079 36.12 139.235 35.3 139.547 34.54C139.859 33.772 140.287 33.1 140.831 32.524C141.383 31.94 142.023 31.484 142.751 31.156C143.479 30.828 144.255 30.664 145.079 30.664C145.999 30.664 146.843 30.856 147.611 31.24C148.379 31.616 149.035 32.14 149.579 32.812C150.123 33.476 150.523 34.244 150.779 35.116C151.035 35.98 151.111 36.9 151.007 37.876H141.755C141.859 38.428 142.059 38.928 142.355 39.376C142.659 39.816 143.043 40.164 143.507 40.42C143.979 40.676 144.503 40.808 145.079 40.816C145.687 40.816 146.239 40.664 146.735 40.36C147.239 40.056 147.651 39.636 147.971 39.1L150.503 39.688C150.023 40.752 149.299 41.624 148.331 42.304C147.363 42.976 146.279 43.312 145.079 43.312ZM141.671 35.968H148.487C148.407 35.392 148.203 34.872 147.875 34.408C147.555 33.936 147.151 33.564 146.663 33.292C146.183 33.012 145.655 32.872 145.079 32.872C144.511 32.872 143.983 33.008 143.495 33.28C143.015 33.552 142.615 33.924 142.295 34.396C141.983 34.86 141.775 35.384 141.671 35.968ZM159.296 43H156.092L151.712 30.976H154.376L157.688 40.12L161.012 30.976H163.664L159.296 43ZM165.51 31H168.006V43H165.51V31ZM166.782 29.26C166.398 29.26 166.078 29.136 165.822 28.888C165.566 28.64 165.438 28.328 165.438 27.952C165.438 27.584 165.566 27.276 165.822 27.028C166.078 26.772 166.394 26.644 166.77 26.644C167.138 26.644 167.45 26.772 167.706 27.028C167.962 27.276 168.09 27.584 168.09 27.952C168.09 28.328 167.962 28.64 167.706 28.888C167.458 29.136 167.15 29.26 166.782 29.26ZM175.947 43.312C174.843 43.312 173.835 43.028 172.923 42.46C172.019 41.892 171.295 41.132 170.751 40.18C170.215 39.22 169.947 38.16 169.947 37C169.947 36.12 170.103 35.3 170.415 34.54C170.727 33.772 171.155 33.1 171.699 32.524C172.251 31.94 172.891 31.484 173.619 31.156C174.347 30.828 175.123 30.664 175.947 30.664C176.867 30.664 177.711 30.856 178.479 31.24C179.247 31.616 179.903 32.14 180.447 32.812C180.991 33.476 181.391 34.244 181.647 35.116C181.903 35.98 181.979 36.9 181.875 37.876H172.623C172.727 38.428 172.927 38.928 173.223 39.376C173.527 39.816 173.911 40.164 174.375 40.42C174.847 40.676 175.371 40.808 175.947 40.816C176.555 40.816 177.107 40.664 177.603 40.36C178.107 40.056 178.519 39.636 178.839 39.1L181.371 39.688C180.891 40.752 180.167 41.624 179.199 42.304C178.231 42.976 177.147 43.312 175.947 43.312ZM172.539 35.968H179.355C179.275 35.392 179.071 34.872 178.743 34.408C178.423 33.936 178.019 33.564 177.531 33.292C177.051 33.012 176.523 32.872 175.947 32.872C175.379 32.872 174.851 33.008 174.363 33.28C173.883 33.552 173.483 33.924 173.163 34.396C172.851 34.86 172.643 35.384 172.539 35.968ZM189.083 43H186.599L182.579 31H185.027L187.859 39.424L190.667 31H193.187L195.995 39.424L198.815 31H201.263L197.255 43H194.747L191.915 34.516L189.083 43ZM206.657 43.228C206.025 43.188 205.409 43.06 204.809 42.844C204.209 42.628 203.681 42.336 203.225 41.968C202.777 41.592 202.441 41.152 202.217 40.648L204.341 39.736C204.445 39.952 204.625 40.164 204.881 40.372C205.145 40.58 205.453 40.752 205.805 40.888C206.157 41.016 206.525 41.08 206.909 41.08C207.285 41.08 207.633 41.028 207.953 40.924C208.281 40.812 208.549 40.644 208.757 40.42C208.965 40.196 209.069 39.928 209.069 39.616C209.069 39.264 208.949 38.992 208.709 38.8C208.477 38.6 208.185 38.448 207.833 38.344C207.481 38.24 207.129 38.14 206.777 38.044C205.993 37.868 205.273 37.628 204.617 37.324C203.969 37.012 203.453 36.616 203.069 36.136C202.685 35.648 202.493 35.052 202.493 34.348C202.493 33.58 202.701 32.916 203.117 32.356C203.533 31.788 204.077 31.352 204.749 31.048C205.429 30.744 206.153 30.592 206.921 30.592C207.881 30.592 208.761 30.796 209.561 31.204C210.361 31.612 210.973 32.172 211.397 32.884L209.417 34.06C209.297 33.82 209.117 33.604 208.877 33.412C208.637 33.22 208.365 33.068 208.061 32.956C207.757 32.836 207.441 32.768 207.113 32.752C206.705 32.736 206.325 32.784 205.973 32.896C205.629 33 205.353 33.168 205.145 33.4C204.937 33.632 204.833 33.928 204.833 34.288C204.833 34.64 204.957 34.904 205.205 35.08C205.453 35.248 205.765 35.384 206.141 35.488C206.525 35.592 206.917 35.708 207.317 35.836C208.029 36.06 208.697 36.336 209.321 36.664C209.945 36.984 210.449 37.38 210.833 37.852C211.217 38.324 211.401 38.9 211.385 39.58C211.385 40.332 211.157 40.992 210.701 41.56C210.253 42.128 209.669 42.56 208.949 42.856C208.229 43.152 207.465 43.276 206.657 43.228Z" fill="#4169E1"/>
<rect x="0.5" y="0.5" width="243" height="68" rx="34" stroke="#4169E1"/>
</svg>
