<svg width="72" height="72" viewBox="0 0 72 72" fill="none" xmlns="http://www.w3.org/2000/svg">
<circle cx="36" cy="36" r="36" transform="matrix(-1 0 0 1 72 0)" fill="#CDCCCC"/>
<path d="M34.4062 46.3415L25.0562 36.9915C24.9146 36.8499 24.814 36.6964 24.7545 36.5311C24.695 36.3659 24.6657 36.1888 24.6666 35.9999C24.6666 35.811 24.6964 35.6339 24.7559 35.4686C24.8154 35.3034 24.9155 35.1499 25.0562 35.0082L34.4062 25.6582C34.666 25.3985 34.9908 25.263 35.3809 25.2516C35.771 25.2403 36.1072 25.3758 36.3896 25.6582C36.6729 25.9179 36.8207 26.2428 36.833 26.6329C36.8453 27.0229 36.7093 27.3592 36.425 27.6415L29.4833 34.5832H45.3146C45.716 34.5832 46.0526 34.7192 46.3246 34.9912C46.5966 35.2632 46.7322 35.5994 46.7312 35.9999C46.7312 36.4013 46.5957 36.738 46.3246 37.01C46.0536 37.282 45.7169 37.4175 45.3146 37.4165H29.4833L36.425 44.3582C36.6847 44.6179 36.8207 44.9485 36.833 45.3499C36.8453 45.7513 36.7093 46.0818 36.425 46.3415C36.1653 46.6249 35.8347 46.7666 35.4333 46.7666C35.0319 46.7666 34.6896 46.6249 34.4062 46.3415Z" fill="white"/>
</svg>
