<svg width="32" height="33" viewBox="0 0 32 33" fill="none" xmlns="http://www.w3.org/2000/svg">
<path d="M16 16.5C16.7333 16.5 17.3613 16.2386 17.884 15.716C18.4066 15.1933 18.6675 14.5657 18.6666 13.8333C18.6666 13.1 18.4053 12.472 17.8826 11.9493C17.36 11.4266 16.7324 11.1657 16 11.1666C15.2666 11.1666 14.6386 11.428 14.116 11.9506C13.5933 12.4733 13.3324 13.1008 13.3333 13.8333C13.3333 14.5666 13.5946 15.1946 14.1173 15.7173C14.64 16.24 15.2675 16.5008 16 16.5ZM16 26.3C18.7111 23.8111 20.7222 21.5497 22.0333 19.516C23.3444 17.4822 24 15.6768 24 14.1C24 11.6777 23.2275 9.69463 21.6826 8.15063C20.1378 6.60663 18.2435 5.83418 16 5.83329C13.7555 5.83329 11.8609 6.60574 10.316 8.15063C8.77109 9.69551 7.99909 11.6786 7.99998 14.1C7.99998 15.6777 8.65554 17.4835 9.96665 19.5173C11.2778 21.5511 13.2889 23.812 16 26.3ZM16 29.8333C12.4222 26.7888 9.7502 23.9613 7.98398 21.3506C6.21776 18.74 5.3342 16.3231 5.33331 14.1C5.33331 10.7666 6.40576 8.11107 8.55065 6.13329C10.6955 4.15551 13.1786 3.16663 16 3.16663C18.8222 3.16663 21.3058 4.15551 23.4506 6.13329C25.5955 8.11107 26.6675 10.7666 26.6666 14.1C26.6666 16.3222 25.7831 18.7391 24.016 21.3506C22.2489 23.9622 19.5769 26.7897 16 29.8333Z" fill="#040404"/>
</svg>
