<svg width="190" height="29" viewBox="0 0 190 29" fill="none" xmlns="http://www.w3.org/2000/svg">
<path d="M1.44 23V6.2H7.62C8.532 6.2 9.352 6.424 10.08 6.872C10.808 7.32 11.384 7.924 11.808 8.684C12.24 9.436 12.456 10.276 12.456 11.204C12.456 11.988 12.308 12.704 12.012 13.352C11.724 14 11.316 14.552 10.788 15.008C10.268 15.464 9.672 15.792 9 15.992L13.056 23H10.164L6.228 16.22H3.936V23H1.44ZM3.936 13.724H7.356C7.836 13.724 8.272 13.604 8.664 13.364C9.064 13.124 9.38 12.804 9.612 12.404C9.844 12.004 9.96 11.552 9.96 11.048C9.96 10.544 9.844 10.092 9.612 9.692C9.38 9.284 9.064 8.964 8.664 8.732C8.272 8.492 7.836 8.372 7.356 8.372H3.936V13.724ZM20.0559 23.312C18.9519 23.312 17.9439 23.028 17.0319 22.46C16.1279 21.892 15.4039 21.132 14.8599 20.18C14.3239 19.22 14.0559 18.16 14.0559 17C14.0559 16.12 14.2119 15.3 14.5239 14.54C14.8359 13.772 15.2639 13.1 15.8079 12.524C16.3599 11.94 16.9999 11.484 17.7279 11.156C18.4559 10.828 19.2319 10.664 20.0559 10.664C20.9759 10.664 21.8199 10.856 22.5879 11.24C23.3559 11.616 24.0119 12.14 24.5559 12.812C25.0999 13.476 25.4999 14.244 25.7559 15.116C26.0119 15.98 26.0879 16.9 25.9839 17.876H16.7319C16.8359 18.428 17.0359 18.928 17.3319 19.376C17.6359 19.816 18.0199 20.164 18.4839 20.42C18.9559 20.676 19.4799 20.808 20.0559 20.816C20.6639 20.816 21.2159 20.664 21.7119 20.36C22.2159 20.056 22.6279 19.636 22.9479 19.1L25.4799 19.688C24.9999 20.752 24.2759 21.624 23.3079 22.304C22.3399 22.976 21.2559 23.312 20.0559 23.312ZM16.6479 15.968H23.4639C23.3839 15.392 23.1799 14.872 22.8519 14.408C22.5319 13.936 22.1279 13.564 21.6399 13.292C21.1599 13.012 20.6319 12.872 20.0559 12.872C19.4879 12.872 18.9599 13.008 18.4719 13.28C17.9919 13.552 17.5919 13.924 17.2719 14.396C16.9599 14.86 16.7519 15.384 16.6479 15.968ZM37.2838 11H39.7798V23H37.2718L37.1758 21.26C36.8238 21.876 36.3478 22.372 35.7478 22.748C35.1478 23.124 34.4398 23.312 33.6238 23.312C32.7438 23.312 31.9158 23.148 31.1398 22.82C30.3638 22.484 29.6798 22.02 29.0878 21.428C28.5038 20.836 28.0478 20.156 27.7198 19.388C27.3918 18.612 27.2278 17.78 27.2278 16.892C27.2278 16.036 27.3878 15.232 27.7078 14.48C28.0278 13.72 28.4718 13.056 29.0398 12.488C29.6078 11.92 30.2638 11.476 31.0078 11.156C31.7598 10.828 32.5638 10.664 33.4198 10.664C34.2918 10.664 35.0598 10.864 35.7238 11.264C36.3958 11.656 36.9518 12.16 37.3918 12.776L37.2838 11ZM33.5638 20.9C34.2678 20.9 34.8838 20.728 35.4118 20.384C35.9398 20.032 36.3478 19.56 36.6358 18.968C36.9318 18.376 37.0798 17.72 37.0798 17C37.0798 16.272 36.9318 15.612 36.6358 15.02C36.3398 14.428 35.9278 13.96 35.3998 13.616C34.8798 13.264 34.2678 13.088 33.5638 13.088C32.8678 13.088 32.2318 13.264 31.6558 13.616C31.0798 13.968 30.6238 14.44 30.2878 15.032C29.9518 15.624 29.7838 16.28 29.7838 17C29.7838 17.728 29.9558 18.388 30.2998 18.98C30.6518 19.564 31.1118 20.032 31.6798 20.384C32.2558 20.728 32.8838 20.9 33.5638 20.9ZM51.288 5H53.784V23H51.288V21.236C50.896 21.86 50.384 22.364 49.752 22.748C49.12 23.124 48.38 23.312 47.532 23.312C46.66 23.312 45.844 23.148 45.084 22.82C44.324 22.492 43.652 22.04 43.068 21.464C42.492 20.88 42.04 20.208 41.712 19.448C41.384 18.688 41.22 17.872 41.22 17C41.22 16.128 41.384 15.312 41.712 14.552C42.04 13.784 42.492 13.112 43.068 12.536C43.652 11.952 44.324 11.496 45.084 11.168C45.844 10.84 46.66 10.676 47.532 10.676C48.38 10.676 49.12 10.868 49.752 11.252C50.384 11.628 50.896 12.124 51.288 12.74V5ZM47.556 20.9C48.26 20.9 48.876 20.728 49.404 20.384C49.932 20.032 50.34 19.56 50.628 18.968C50.924 18.376 51.072 17.72 51.072 17C51.072 16.272 50.924 15.612 50.628 15.02C50.332 14.428 49.92 13.96 49.392 13.616C48.872 13.264 48.26 13.088 47.556 13.088C46.86 13.088 46.224 13.264 45.648 13.616C45.08 13.968 44.624 14.44 44.28 15.032C43.944 15.624 43.776 16.28 43.776 17C43.776 17.728 43.948 18.388 44.292 18.98C44.644 19.564 45.104 20.032 45.672 20.384C46.248 20.728 46.876 20.9 47.556 20.9ZM62.4244 23V6.2H72.3244V8.696H64.9204V12.752H71.1724V15.248H64.9204V23H62.4244ZM73.0772 18.5V11H75.5732V17.888C75.5732 18.424 75.7052 18.912 75.9692 19.352C76.2332 19.792 76.5852 20.144 77.0252 20.408C77.4652 20.664 77.9492 20.792 78.4772 20.792C79.0132 20.792 79.4972 20.664 79.9292 20.408C80.3692 20.144 80.7172 19.792 80.9732 19.352C81.2372 18.912 81.3692 18.424 81.3692 17.888V11H83.8652L83.8772 23H81.3812L81.3692 21.704C80.9612 22.2 80.4532 22.592 79.8452 22.88C79.2372 23.168 78.5852 23.312 77.8892 23.312C77.0012 23.312 76.1932 23.096 75.4652 22.664C74.7372 22.232 74.1572 21.652 73.7252 20.924C73.2932 20.196 73.0772 19.388 73.0772 18.5ZM86.3775 23V5H88.8735V23H86.3775ZM91.7447 23V5H94.2407V23H91.7447ZM102.878 23V6.2H108.662C109.566 6.2 110.382 6.424 111.11 6.872C111.846 7.32 112.43 7.924 112.862 8.684C113.302 9.444 113.522 10.284 113.522 11.204C113.522 12.14 113.298 12.988 112.85 13.748C112.41 14.5 111.822 15.1 111.086 15.548C110.35 15.996 109.542 16.22 108.662 16.22H105.374V23H102.878ZM105.374 13.724H108.41C108.89 13.724 109.326 13.604 109.718 13.364C110.118 13.124 110.434 12.804 110.666 12.404C110.906 12.004 111.026 11.552 111.026 11.048C111.026 10.544 110.906 10.092 110.666 9.692C110.434 9.284 110.118 8.964 109.718 8.732C109.326 8.492 108.89 8.372 108.41 8.372H105.374V13.724ZM120.181 23.312C119.077 23.312 118.069 23.028 117.157 22.46C116.253 21.892 115.529 21.132 114.985 20.18C114.449 19.22 114.181 18.16 114.181 17C114.181 16.12 114.337 15.3 114.649 14.54C114.961 13.772 115.389 13.1 115.933 12.524C116.485 11.94 117.125 11.484 117.853 11.156C118.581 10.828 119.357 10.664 120.181 10.664C121.285 10.664 122.289 10.948 123.193 11.516C124.105 12.084 124.829 12.848 125.365 13.808C125.909 14.768 126.181 15.832 126.181 17C126.181 17.872 126.025 18.688 125.713 19.448C125.401 20.208 124.969 20.88 124.417 21.464C123.873 22.04 123.237 22.492 122.509 22.82C121.789 23.148 121.013 23.312 120.181 23.312ZM120.181 20.816C120.845 20.816 121.441 20.64 121.969 20.288C122.497 19.936 122.913 19.472 123.217 18.896C123.529 18.312 123.685 17.68 123.685 17C123.685 16.304 123.525 15.664 123.205 15.08C122.893 14.496 122.473 14.032 121.945 13.688C121.417 13.336 120.829 13.16 120.181 13.16C119.525 13.16 118.929 13.336 118.393 13.688C117.865 14.04 117.445 14.508 117.133 15.092C116.829 15.676 116.677 16.312 116.677 17C116.677 17.712 116.837 18.356 117.157 18.932C117.477 19.508 117.901 19.968 118.429 20.312C118.965 20.648 119.549 20.816 120.181 20.816ZM131.767 23.228C131.135 23.188 130.519 23.06 129.919 22.844C129.319 22.628 128.791 22.336 128.335 21.968C127.887 21.592 127.551 21.152 127.327 20.648L129.451 19.736C129.555 19.952 129.735 20.164 129.991 20.372C130.255 20.58 130.563 20.752 130.915 20.888C131.267 21.016 131.635 21.08 132.019 21.08C132.395 21.08 132.743 21.028 133.063 20.924C133.391 20.812 133.659 20.644 133.867 20.42C134.075 20.196 134.179 19.928 134.179 19.616C134.179 19.264 134.059 18.992 133.819 18.8C133.587 18.6 133.295 18.448 132.943 18.344C132.591 18.24 132.239 18.14 131.887 18.044C131.103 17.868 130.383 17.628 129.727 17.324C129.079 17.012 128.563 16.616 128.179 16.136C127.795 15.648 127.603 15.052 127.603 14.348C127.603 13.58 127.811 12.916 128.227 12.356C128.643 11.788 129.187 11.352 129.859 11.048C130.539 10.744 131.263 10.592 132.031 10.592C132.991 10.592 133.871 10.796 134.671 11.204C135.471 11.612 136.083 12.172 136.507 12.884L134.527 14.06C134.407 13.82 134.227 13.604 133.987 13.412C133.747 13.22 133.475 13.068 133.171 12.956C132.867 12.836 132.551 12.768 132.223 12.752C131.815 12.736 131.435 12.784 131.083 12.896C130.739 13 130.463 13.168 130.255 13.4C130.047 13.632 129.943 13.928 129.943 14.288C129.943 14.64 130.067 14.904 130.315 15.08C130.563 15.248 130.875 15.384 131.251 15.488C131.635 15.592 132.027 15.708 132.427 15.836C133.139 16.06 133.807 16.336 134.431 16.664C135.055 16.984 135.559 17.38 135.943 17.852C136.327 18.324 136.511 18.9 136.495 19.58C136.495 20.332 136.267 20.992 135.811 21.56C135.363 22.128 134.779 22.56 134.059 22.856C133.339 23.152 132.575 23.276 131.767 23.228ZM144.885 13.496H142.365L142.353 23H139.857L139.869 13.496H137.961V11H139.869L139.857 7.232H142.353L142.365 11H144.885V13.496Z" fill="#4169E1"/>
<path d="M169.467 21.5L167.833 19.8666L179.033 8.66665H169V6.33331H183V20.3333H180.667V10.3L169.467 21.5Z" fill="#4169E1"/>
</svg>
