<svg width="72" height="72" viewBox="0 0 72 72" fill="none" xmlns="http://www.w3.org/2000/svg">
<circle cx="36" cy="36" r="36" fill="#4169E1"/>
<path d="M37.5938 46.3415L46.9438 36.9915C47.0854 36.8499 47.186 36.6964 47.2455 36.5311C47.305 36.3659 47.3343 36.1888 47.3334 35.9999C47.3334 35.811 47.3036 35.6339 47.2441 35.4686C47.1846 35.3034 47.0845 35.1499 46.9438 35.0082L37.5938 25.6582C37.334 25.3985 37.0092 25.263 36.6191 25.2516C36.229 25.2403 35.8928 25.3758 35.6104 25.6582C35.3271 25.9179 35.1793 26.2428 35.167 26.6329C35.1547 27.0229 35.2907 27.3592 35.575 27.6415L42.5167 34.5832H26.6854C26.284 34.5832 25.9474 34.7192 25.6754 34.9912C25.4034 35.2632 25.2678 35.5994 25.2688 35.9999C25.2688 36.4013 25.4043 36.738 25.6754 37.01C25.9464 37.282 26.2831 37.4175 26.6854 37.4165H42.5167L35.575 44.3582C35.3153 44.6179 35.1793 44.9485 35.167 45.3499C35.1547 45.7513 35.2907 46.0818 35.575 46.3415C35.8347 46.6249 36.1653 46.7666 36.5667 46.7666C36.9681 46.7666 37.3104 46.6249 37.5938 46.3415Z" fill="white"/>
</svg>
